<svg width="36" height="36" viewBox="0 0 36 36" fill="none" xmlns="http://www.w3.org/2000/svg">
<path fill-rule="evenodd" clip-rule="evenodd" d="M18 0C8.058 0 0 8.0595 0 18C0 27.9405 8.058 36 18 36C27.9405 36 36 27.9405 36 18C36 8.0595 27.9405 0 18 0ZM18.21 28.527C12.408 28.527 7.71 23.817 7.71 18C7.71 12.183 12.408 7.473 18.21 7.473C21.045 7.473 23.415 8.5185 25.233 10.2165L22.272 13.1835V13.1775C21.1695 12.1245 19.7715 11.5845 18.21 11.5845C14.745 11.5845 11.9295 14.5185 11.9295 17.994C11.9295 21.4665 14.745 24.4095 18.21 24.4095C21.354 24.4095 23.493 22.6065 23.934 20.1315H18.21V16.026H28.0875C28.2195 16.731 28.29 17.466 28.29 18.237C28.29 24.252 24.2745 28.527 18.21 28.527Z" fill="black"/>
</svg>
