<svg width="52" height="52" viewBox="0 0 52 52" fill="none" xmlns="http://www.w3.org/2000/svg">
<path d="M26 45.5C20.6072 45.5 15.9575 43.5717 12.1853 39.767C8.41317 35.9732 6.5 31.3408 6.5 26C6.5 20.6093 8.41533 15.9597 12.1918 12.1875C15.9618 8.41533 20.6093 6.5 26 6.5C31.343 6.5 35.9753 8.41317 39.767 12.1853C43.5695 15.9597 45.5 20.6093 45.5 26C45.5 31.3408 43.5717 35.9753 39.7713 39.7735C35.9775 43.5717 31.3452 45.5 26 45.5ZM26 10.8333C21.7403 10.8333 18.226 12.2785 15.2577 15.2533C12.2807 18.226 10.8333 21.7403 10.8333 26C10.8333 30.212 12.2807 33.7177 15.2598 36.7142C18.2325 39.7107 21.7447 41.1667 26 41.1667C30.2098 41.1667 33.7133 39.7085 36.7055 36.7098C39.7085 33.7112 41.1667 30.2055 41.1667 26C41.1667 21.7468 39.7107 18.2325 36.7142 15.2598C33.7177 12.2807 30.2142 10.8333 26 10.8333ZM19.5 31.4167C16.5122 31.4167 14.0833 28.9878 14.0833 26C14.0833 23.0122 16.5122 20.5833 19.5 20.5833C22.4878 20.5833 24.9167 23.0122 24.9167 26C24.9167 28.9878 22.4878 31.4167 19.5 31.4167ZM19.5 22.75C17.7082 22.75 16.25 24.2082 16.25 26C16.25 27.7918 17.7082 29.25 19.5 29.25C21.2918 29.25 22.75 27.7918 22.75 26C22.75 24.2082 21.2918 22.75 19.5 22.75ZM32.5 31.4167C29.5122 31.4167 27.0833 28.9878 27.0833 26C27.0833 23.0122 29.5122 20.5833 32.5 20.5833C35.4878 20.5833 37.9167 23.0122 37.9167 26C37.9167 28.9878 35.4878 31.4167 32.5 31.4167Z" fill="black"/>
</svg>
